<svg width="22" height="20" viewBox="0 0 22 20" fill="none" xmlns="http://www.w3.org/2000/svg">
<path d="M3.7417 0H17.8062V20H15.7417V10.8387H15.7214C15.4933 8.30674 13.3653 6.32256 10.7739 6.32256C8.18259 6.32256 6.05464 8.30674 5.82645 10.8387H5.80621V20H3.7417V0Z" fill="black"/>
<path d="M0 2.83868L0.838712 5.6774H1.54838V17.1613C1.19206 17.1613 0.903222 17.4501 0.903222 17.8064V18.5806H0.774203C0.41789 18.5806 0.129019 18.8695 0.129019 19.2258V20H7.35483V19.2258C7.35483 18.8695 7.06598 18.5806 6.70967 18.5806H6.58065V17.8064C6.58065 17.4501 6.29178 17.1613 5.93547 17.1613H5.16129V2.83868H0Z" fill="black"/>
<path d="M15.871 17.1613C15.5147 17.1613 15.2258 17.4501 15.2258 17.8064V18.5806H15.0968C14.7405 18.5806 14.4517 18.8695 14.4517 19.2258V20H21.6775V19.2258C21.6775 18.8695 21.3886 18.5806 21.0323 18.5806H20.9033V17.8064C20.9033 17.4501 20.6144 17.1613 20.2581 17.1613V5.6774H20.9678L21.8065 2.83868H16.6452V17.1613H15.871Z" fill="black"/>
</svg>
