<svg width="24" height="20" viewBox="0 0 24 20" fill="none" xmlns="http://www.w3.org/2000/svg">
<path fill-rule="evenodd" clip-rule="evenodd" d="M18.3844 19.7792C18.7064 20.0072 19.1214 20.0642 19.4914 19.9242C19.8614 19.7832 20.1334 19.4672 20.2154 19.0842C21.0844 15.0002 23.1924 4.66315 23.9834 0.948149C24.0434 0.668149 23.9434 0.377149 23.7234 0.190149C23.5034 0.00314829 23.1984 -0.0508519 22.9264 0.0501482C18.7334 1.60215 5.8204 6.44716 0.542399 8.40016C0.207398 8.52416 -0.0106022 8.84616 0.000397854 9.19916C0.0123979 9.55316 0.250398 9.86016 0.593399 9.96316C2.9604 10.6712 6.0674 11.6562 6.0674 11.6562C6.0674 11.6562 7.51941 16.0412 8.27641 18.2712C8.37141 18.5512 8.59041 18.7712 8.87941 18.8472C9.16741 18.9222 9.47541 18.8432 9.69041 18.6402C10.9064 17.4922 12.7864 15.7172 12.7864 15.7172C12.7864 15.7172 16.3584 18.3362 18.3844 19.7792ZM7.37441 11.1022L9.05341 16.6402L9.42641 13.1332C9.42641 13.1332 15.9134 7.28216 19.6114 3.94715C19.7194 3.84915 19.7344 3.68515 19.6444 3.57015C19.5554 3.45515 19.3914 3.42815 19.2684 3.50615C14.9824 6.24316 7.37441 11.1022 7.37441 11.1022Z" fill="black"/>
</svg>
